Radio-Canada-Regular-slant-10.ufo
<glyph name="parenleft" format="1">
  <advance width="332"/>
  <unicode hex="0028"/>
  <outline>
    <contour>
      <point x="122.25563082986861" y="268.0" type="curve" smooth="yes"/>
      <point x="83.14485724587595" y="46.19178082191783"/>
      <point x="158.4981468448397" y="-122.14481409001958"/>
      <point x="291.03417859138534" y="-238.0" type="curve"/>
      <point x="332.61623876184933" y="-195.0" type="line"/>
      <point x="226.88587965907203" y="-86.0"/>
      <point x="172.69310128305338" y="89.0"/>
      <point x="204.2556308298686" y="268.0" type="curve" smooth="yes"/>
      <point x="235.81816037668386" y="447.0"/>
      <point x="351.54905501995677" y="621.0"/>
      <point x="495.71869591717945" y="730.0" type="curve"/>
      <point x="469.30075608764344" y="773.0" type="line"/>
      <point x="295.9083298863306" y="657.1470588235294"/>
      <point x="161.36564662936186" y="489.80392156862746"/>
    </contour>
  </outline>
</glyph>
<glyph name="parenright" format="1">
  <advance width="332"/>
  <unicode hex="0029"/>
  <outline>
    <contour>
      <point x="-69.38376123815067" y="-195.0" type="curve"/>
      <point x="-42.965821408614666" y="-238.0" type="line"/>
      <point x="130.48810835356727" y="-122.0"/>
      <point x="265.11104111258936" y="46.0"/>
      <point x="304.2556308298686" y="268.0" type="curve" smooth="yes"/>
      <point x="343.40022054714785" y="490.0"/>
      <point x="267.8468263254615" y="657.0"/>
      <point x="135.30075608764344" y="773.0" type="curve"/>
      <point x="93.71869591717945" y="730.0" type="line"/>
      <point x="199.49905501995676" y="621.0"/>
      <point x="253.81816037668386" y="447.0"/>
      <point x="222.2556308298686" y="268.0" type="curve" smooth="yes"/>
      <point x="190.69310128305338" y="89.0"/>
      <point x="74.835879659072" y="-86.0"/>
    </contour>
  </outline>
</glyph>
<glyph name="hyphen" format="1">
  <advance width="368"/>
  <unicode hex="002D"/>
  <outline>
    <contour>
      <point x="101.43684046648927" y="235.0" type="line"/>
      <point x="349.4368404664893" y="235.0" type="line"/>
      <point x="363.54299892316646" y="315.0" type="line"/>
      <point x="115.54299892316646" y="315.0" type="line"/>
    </contour>
  </outline>
</glyph>
<glyph name="six" format="1">
  <advance width="660"/>
  <unicode hex="0036"/>
  <outline>
    <contour>
      <point x="138.4246338267088" y="320.0" type="curve"/>
      <point x="101.39596787793116" y="110.0"/>
      <point x="188.23673019291536" y="-10.0"/>
      <point x="334.23673019291533" y="-10.0" type="curve"/>
      <point x="465.23673019291533" y="-10.0"/>
      <point x="590.3404473216365" y="87.0"/>
      <point x="614.6735706594046" y="225.0" type="curve" smooth="yes"/>
      <point x="637.948732112922" y="357.0"/>
      <point x="560.9365254731415" y="442.0"/>
      <point x="436.9365254731415" y="442.0" type="curve" smooth="yes"/>
      <point x="363.9365254731415" y="442.0"/>
      <point x="286.2361002062198" y="404.0"/>
      <point x="236.65648136371195" y="344.0" type="curve"/>
      <point x="223.60828479128554" y="270.0" type="line"/>
      <point x="274.42463382670877" y="320.0"/>
      <point x="336.7144432479627" y="350.0"/>
      <point x="404.7144432479627" y="350.0" type="curve" smooth="yes"/>
      <point x="479.7144432479627" y="350.0"/>
      <point x="528.8980942125395" y="300.0"/>
      <point x="515.1445897172792" y="222.0" type="curve" smooth="yes"/>
      <point x="500.33312333776814" y="138.0"/>
      <point x="427.4008505338433" y="76.0"/>
      <point x="354.4008505338433" y="76.0" type="curve"/>
      <point x="260.4008505338433" y="76.0"/>
      <point x="209.21231691335439" y="160.0"/>
      <point x="237.4246338267088" y="320.0" type="curve"/>
      <point x="274.1006458140695" y="528.0"/>
      <point x="391.7357852128721" y="611.0"/>
      <point x="482.7357852128721" y="611.0" type="curve"/>
      <point x="535.7357852128721" y="611.0"/>
      <point x="565.9145535215366" y="595.0"/>
      <point x="596.3300520231165" y="569.0" type="curve"/>
      <point x="659.4362104797938" y="649.0" type="line"/>
      <point x="618.4313278238816" y="683.0"/>
      <point x="566.4288864959254" y="700.0"/>
      <point x="508.4288864959255" y="700.0" type="curve"/>
      <point x="357.4288864959255" y="700.0"/>
      <point x="183.03535994595043" y="573.0"/>
    </contour>
  </outline>
</glyph>
<glyph name="C" format="1">
  <advance width="649"/>
  <unicode hex="0043"/>
  <outline>
    <contour>
      <point x="120.83280834442041" y="345.0" type="curve" smooth="yes"/>
      <point x="80.45392976218193" y="116.0"/>
      <point x="200.23673019291536" y="-10.0"/>
      <point x="371.23673019291533" y="-10.0" type="curve" smooth="yes"/>
      <point x="458.23673019291533" y="-10.0"/>
      <point x="538.0555205562947" y="23.0"/>
      <point x="608.8114663795111" y="84.0" type="curve"/>
      <point x="555.2727201255612" y="149.0" type="line"/>
      <point x="506.1616790129719" y="103.0"/>
      <point x="449.2824854373857" y="81.0"/>
      <point x="387.2824854373857" y="81.0" type="curve" smooth="yes"/>
      <point x="264.2824854373857" y="81.0"/>
      <point x="189.328240681856" y="172.0"/>
      <point x="219.8328083444204" y="345.0" type="curve" smooth="yes"/>
      <point x="250.16104902627637" y="517.0"/>
      <point x="357.38313125145515" y="609.0"/>
      <point x="480.38313125145515" y="609.0" type="curve" smooth="yes"/>
      <point x="535.3831312514552" y="609.0"/>
      <point x="580.3276106951605" y="586.0"/>
      <point x="613.7455505246965" y="543.0" type="curve"/>
      <point x="693.2068042707467" y="608.0" type="line"/>
      <point x="643.4337691518376" y="666.0"/>
      <point x="576.4288864959254" y="700.0"/>
      <point x="496.4288864959255" y="700.0" type="curve" smooth="yes"/>
      <point x="325.4288864959255" y="700.0"/>
      <point x="161.03535994595043" y="573.0"/>
    </contour>
    <contour>
      <point x="484.6656166888408" y="690.0" type="move" name="top"/>
    </contour>
    <contour>
      <point x="363.0" y="0.0" type="move" name="bottom"/>
    </contour>
  </outline>
</glyph>
<glyph name="E" format="1">
  <advance width="621"/>
  <unicode hex="0045"/>
  <outline>
    <contour>
      <point x="100.0" y="0.0" type="line"/>
      <point x="196.0" y="0.0" type="line"/>
      <point x="317.6656166888408" y="690.0" type="line"/>
      <point x="221.66561668884083" y="690.0" type="line"/>
    </contour>
    <contour>
      <point x="150.0" y="0.0" type="line"/>
      <point x="551.0" y="0.0" type="line"/>
      <point x="566.164120340928" y="86.0" type="line"/>
      <point x="165.16412034092798" y="86.0" type="line"/>
    </contour>
    <contour>
      <point x="204.13238307749873" y="307.0" type="line"/>
      <point x="550.1323830774987" y="307.0" type="line"/>
      <point x="565.2965034184267" y="393.0" type="line"/>
      <point x="219.29650341842674" y="393.0" type="line"/>
    </contour>
    <contour>
      <point x="256.50149634791285" y="604.0" type="line"/>
      <point x="652.5014963479128" y="604.0" type="line"/>
      <point x="667.6656166888408" y="690.0" type="line"/>
      <point x="271.6656166888408" y="690.0" type="line"/>
    </contour>
    <contour>
      <point x="449.6656166888408" y="690.0" type="move" name="top"/>
    </contour>
    <contour>
      <point x="328.0" y="0.0" type="move" name="bottom"/>
    </contour>
  </outline>
</glyph>
<glyph name="F" format="1">
  <advance width="581"/>
  <unicode hex="0046"/>
  <outline>
    <contour>
      <point x="100.0" y="0.0" type="line"/>
      <point x="196.0" y="0.0" type="line"/>
      <point x="317.6656166888408" y="690.0" type="line"/>
      <point x="221.66561668884083" y="690.0" type="line"/>
    </contour>
    <contour>
      <point x="200.07686252120405" y="284.0" type="line"/>
      <point x="542.076862521204" y="284.0" type="line"/>
      <point x="557.240982862132" y="370.0" type="line"/>
      <point x="215.24098286213206" y="370.0" type="line"/>
    </contour>
    <contour>
      <point x="256.50149634791285" y="604.0" type="line"/>
      <point x="637.5014963479128" y="604.0" type="line"/>
      <point x="652.6656166888408" y="690.0" type="line"/>
      <point x="271.6656166888408" y="690.0" type="line"/>
    </contour>
  </outline>
</glyph>
<glyph name="H" format="1">
  <advance width="736"/>
  <unicode hex="0048"/>
  <outline>
    <contour>
      <point x="100.0" y="0.0" type="line"/>
      <point x="196.0" y="0.0" type="line"/>
      <point x="317.6656166888408" y="690.0" type="line"/>
      <point x="221.66561668884083" y="690.0" type="line"/>
    </contour>
    <contour>
      <point x="204.13238307749873" y="307.0" type="line"/>
      <point x="640.1323830774987" y="307.0" type="line"/>
      <point x="655.2965034184267" y="393.0" type="line"/>
      <point x="219.29650341842674" y="393.0" type="line"/>
    </contour>
    <contour>
      <point x="540.0" y="0.0" type="line"/>
      <point x="636.0" y="0.0" type="line"/>
      <point x="757.6656166888408" y="690.0" type="line"/>
      <point x="661.6656166888408" y="690.0" type="line"/>
    </contour>
    <contour>
      <point x="489.6656166888408" y="690.0" type="move" name="top"/>
    </contour>
  </outline>
</glyph>
<glyph name="J" format="1">
  <advance width="573"/>
  <unicode hex="004A"/>
  <outline>
    <contour>
      <point x="63.866986935805755" y="107.0" type="line"/>
      <point x="92.87675224763014" y="39.0"/>
      <point x="166.23673019291536" y="-10.0"/>
      <point x="253.23673019291536" y="-10.0" type="curve" smooth="yes"/>
      <point x="380.23673019291533" y="-10.0"/>
      <point x="496.2245235531349" y="75.0"/>
      <point x="524.6131674471977" y="236.0" type="curve" smooth="yes"/>
      <point x="604.6656166888408" y="690.0" type="line"/>
      <point x="510.6656166888408" y="690.0" type="line"/>
      <point x="432.3764372542824" y="246.0" type="line" smooth="yes"/>
      <point x="411.92250749210046" y="130.0"/>
      <point x="350.75350449526024" y="78.0"/>
      <point x="267.75350449526024" y="78.0" type="curve" smooth="yes"/>
      <point x="200.75350449526027" y="78.0"/>
      <point x="160.98291070430733" y="119.0"/>
      <point x="144.7412978554798" y="163.0" type="curve"/>
    </contour>
    <contour>
      <point x="314.38313125145515" y="609.0" type="line"/>
      <point x="550.3831312514552" y="609.0" type="line"/>
      <point x="564.6656166888408" y="690.0" type="line"/>
      <point x="328.6656166888408" y="690.0" type="line"/>
    </contour>
    <contour>
      <point x="466.6656166888408" y="690.0" type="move" name="top"/>
    </contour>
  </outline>
</glyph>
<glyph name="L" format="1">
  <advance width="556"/>
  <unicode hex="004C"/>
  <outline>
    <contour>
      <point x="100.0" y="0.0" type="line"/>
      <point x="196.0" y="0.0" type="line"/>
      <point x="317.6656166888408" y="690.0" type="line"/>
      <point x="221.66561668884083" y="690.0" type="line"/>
    </contour>
    <contour>
      <point x="150.0" y="0.0" type="line"/>
      <point x="516.0" y="0.0" type="line"/>
      <point x="531.164120340928" y="86.0" type="line"/>
      <point x="165.16412034092798" y="86.0" type="line"/>
    </contour>
    <contour>
      <point x="269.6656166888408" y="690.0" type="move" name="top"/>
    </contour>
  </outline>
</glyph>
<glyph name="P" format="1">
  <advance width="632"/>
  <unicode hex="0050"/>
  <outline>
    <contour>
      <point x="100.0" y="0.0" type="line"/>
      <point x="196.0" y="0.0" type="line"/>
      <point x="317.6656166888408" y="690.0" type="line"/>
      <point x="221.66561668884083" y="690.0" type="line"/>
    </contour>
    <contour>
      <point x="190.55520556294695" y="230.0" type="line"/>
      <point x="368.5552055629469" y="230.0" type="line" smooth="yes"/>
      <point x="509.5552055629469" y="230.0"/>
      <point x="636.8376910003326" y="311.0"/>
      <point x="663.1104111258938" y="460.0" type="curve" smooth="yes"/>
      <point x="689.3831312514552" y="609.0"/>
      <point x="590.6656166888408" y="690.0"/>
      <point x="449.6656166888408" y="690.0" type="curve" smooth="yes"/>
      <point x="271.6656166888408" y="690.0" type="line"/>
      <point x="256.50149634791285" y="604.0" type="line"/>
      <point x="429.50149634791285" y="604.0" type="line" smooth="yes"/>
      <point x="521.5014963479128" y="604.0"/>
      <point x="580.5088203317812" y="553.0"/>
      <point x="564.1104111258938" y="460.0" type="curve" smooth="yes"/>
      <point x="547.7120019200066" y="367.0"/>
      <point x="469.71932590387496" y="316.0"/>
      <point x="378.71932590387496" y="316.0" type="curve" smooth="yes"/>
      <point x="205.71932590387493" y="316.0" type="line"/>
    </contour>
  </outline>
</glyph>
<glyph name="V" format="1">
  <advance width="636"/>
  <unicode hex="0056"/>
  <outline>
    <contour>
      <point x="141.66561668884083" y="690.0" type="line"/>
      <point x="278.0" y="0.0" type="line"/>
      <point x="333.0" y="0.0" type="line"/>
      <point x="352.86942826376185" y="90.0" type="line"/>
      <point x="245.66561668884083" y="690.0" type="line"/>
    </contour>
    <contour>
      <point x="318.86942826376185" y="90.0" type="line"/>
      <point x="311.0" y="0.0" type="line"/>
      <point x="358.0" y="0.0" type="line"/>
      <point x="737.6656166888408" y="690.0" type="line"/>
      <point x="637.6656166888408" y="690.0" type="line"/>
    </contour>
  </outline>
</glyph>
<glyph name="X" format="1">
  <advance width="644.0"/>
  <unicode hex="0058"/>
  <outline>
    <contour>
      <point x="30.0" y="0.0" type="line"/>
      <point x="140.0" y="0.0" type="line"/>
      <point x="385.1927862897056" y="296.0" type="line"/>
      <point x="420.36423061450193" y="331.0" type="line"/>
      <point x="725.6656166888408" y="690.0" type="line"/>
      <point x="615.6656166888408" y="690.0" type="line"/>
      <point x="383.1177351097622" y="409.0" type="line"/>
      <point x="347.94629078496587" y="374.0" type="line"/>
    </contour>
    <contour>
      <point x="161.66561668884083" y="690.0" type="line"/>
      <point x="346.66136401962416" y="310.0" type="line"/>
      <point x="498.0" y="0.0" type="line"/>
      <point x="614.0" y="0.0" type="line"/>
      <point x="422.4728303991352" y="394.0" type="line"/>
      <point x="277.6656166888408" y="690.0" type="line"/>
    </contour>
  </outline>
</glyph>
<glyph name="bracketleft" format="1">
  <advance width="309"/>
  <unicode hex="005B"/>
  <outline>
    <contour>
      <point x="56.79988972642608" y="-245.0" type="line"/>
      <point x="138.79988972642607" y="-245.0" type="line"/>
      <point x="319.5350449526027" y="780.0" type="line"/>
      <point x="237.53504495260268" y="780.0" type="line"/>
    </contour>
    <contour>
      <point x="56.79988972642608" y="-245.0" type="line"/>
      <point x="300.7998897264261" y="-245.0" type="line"/>
      <point x="313.1427783760186" y="-175.0" type="line"/>
      <point x="69.14277837601863" y="-175.0" type="line"/>
    </contour>
    <contour>
      <point x="225.19215630301014" y="710.0" type="line"/>
      <point x="469.19215630301017" y="710.0" type="line"/>
      <point x="481.5350449526027" y="780.0" type="line"/>
      <point x="237.53504495260268" y="780.0" type="line"/>
    </contour>
  </outline>
</glyph>
<glyph name="bracketright" format="1">
  <advance width="309"/>
  <unicode hex="005D"/>
  <outline>
    <contour>
      <point x="-78.20011027357393" y="-245.0" type="line"/>
      <point x="165.79988972642607" y="-245.0" type="line"/>
      <point x="178.14277837601864" y="-175.0" type="line"/>
      <point x="-65.85722162398137" y="-175.0" type="line"/>
    </contour>
    <contour>
      <point x="90.19215630301014" y="710.0" type="line"/>
      <point x="334.19215630301017" y="710.0" type="line"/>
      <point x="346.5350449526027" y="780.0" type="line"/>
      <point x="102.53504495260268" y="780.0" type="line"/>
    </contour>
    <contour>
      <point x="83.79988972642607" y="-245.0" type="line"/>
      <point x="165.79988972642607" y="-245.0" type="line"/>
      <point x="346.5350449526027" y="780.0" type="line"/>
      <point x="264.5350449526027" y="780.0" type="line"/>
    </contour>
  </outline>
</glyph>
<glyph name="h" format="1">
  <advance width="604"/>
  <unicode hex="0068"/>
  <outline>
    <contour>
      <point x="90.0" y="0.0" type="line"/>
      <point x="182.0" y="0.0" type="line"/>
      <point x="311.60033082072175" y="735.0" type="line"/>
      <point x="216.07379120655247" y="715.0" type="line"/>
    </contour>
    <contour>
      <point x="230.65404003575586" y="361.0" type="line"/>
      <point x="283.2940620904707" y="410.0"/>
      <point x="340.23121755030763" y="438.0"/>
      <point x="393.23121755030763" y="438.0" type="curve"/>
      <point x="457.23121755030763" y="438.0"/>
      <point x="497.0018113412606" y="397.0"/>
      <point x="480.60340213537336" y="304.0" type="curve" smooth="yes"/>
      <point x="427.0" y="0.0" type="line"/>
      <point x="519.0" y="0.0" type="line"/>
      <point x="574.719325903875" y="316.0" type="line" smooth="yes"/>
      <point x="599.5814301837685" y="457.0"/>
      <point x="534.5716648719441" y="525.0"/>
      <point x="432.5716648719441" y="525.0" type="curve"/>
      <point x="365.5716648719441" y="525.0"/>
      <point x="296.694912624314" y="486.0"/>
      <point x="242.82060170463996" y="430.0" type="curve"/>
    </contour>
    <contour>
      <point x="262.9554261100948" y="720.0" type="move" name="top"/>
    </contour>
  </outline>
</glyph>
<glyph name="m" format="1">
  <advance width="881"/>
  <unicode hex="006D"/>
  <outline>
    <contour>
      <point x="165.80839506485947" y="515.0" type="line"/>
      <point x="166.050007913687" y="471.0" type="line" smooth="yes"/>
      <point x="165.9365254731415" y="442.0"/>
      <point x="164.23365887826375" y="421.0"/>
      <point x="159.29650341842674" y="393.0" type="curve" smooth="yes"/>
      <point x="90.0" y="0.0" type="line"/>
      <point x="182.0" y="0.0" type="line"/>
      <point x="249.5332336113421" y="383.0" type="line"/>
      <point x="255.0573318975553" y="420.0" type="line"/>
      <point x="251.80839506485947" y="515.0" type="line"/>
    </contour>
    <contour>
      <point x="230.12505909363045" y="358.0" type="line"/>
      <point x="278.9414081290537" y="408.0"/>
      <point x="329.23121755030763" y="438.0"/>
      <point x="376.23121755030763" y="438.0" type="curve"/>
      <point x="432.23121755030763" y="438.0"/>
      <point x="468.0597732255114" y="403.0"/>
      <point x="452.19034496174953" y="313.0" type="curve" smooth="yes"/>
      <point x="397.0" y="0.0" type="line"/>
      <point x="489.0" y="0.0" type="line"/>
      <point x="546.3062687302511" y="325.0" type="line" smooth="yes"/>
      <point x="570.6393920680193" y="463.0"/>
      <point x="510.5716648719441" y="525.0"/>
      <point x="423.5716648719441" y="525.0" type="curve" smooth="yes"/>
      <point x="356.5716648719441" y="525.0"/>
      <point x="292.694912624314" y="486.0"/>
      <point x="242.82060170463996" y="430.0" type="curve"/>
    </contour>
    <contour>
      <point x="540.467947743223" y="428.0" type="curve"/>
      <point x="537.1250590936305" y="358.0" type="line"/>
      <point x="585.9414081290537" y="408.0"/>
      <point x="636.2312175503076" y="438.0"/>
      <point x="683.2312175503076" y="438.0" type="curve"/>
      <point x="739.2312175503076" y="438.0"/>
      <point x="775.0597732255114" y="403.0"/>
      <point x="759.1903449617496" y="313.0" type="curve" smooth="yes"/>
      <point x="704.0" y="0.0" type="line"/>
      <point x="796.0" y="0.0" type="line"/>
      <point x="853.3062687302511" y="325.0" type="line" smooth="yes"/>
      <point x="877.6393920680193" y="463.0"/>
      <point x="817.5716648719441" y="525.0"/>
      <point x="730.5716648719441" y="525.0" type="curve" smooth="yes"/>
      <point x="659.5716648719441" y="525.0"/>
      <point x="592.5185856436055" y="485.0"/>
    </contour>
  </outline>
</glyph>
<glyph name="p" format="1">
  <advance width="586"/>
  <unicode hex="0070"/>
  <outline>
    <contour>
      <point x="165.80839506485947" y="515.0" type="line"/>
      <point x="166.050007913687" y="471.0" type="line" smooth="yes"/>
      <point x="165.9365254731415" y="442.0"/>
      <point x="164.23365887826375" y="421.0"/>
      <point x="159.29650341842674" y="393.0" type="curve" smooth="yes"/>
      <point x="54.734603858307004" y="-200.0" type="line"/>
      <point x="150.2611434724763" y="-180.0" type="line"/>
      <point x="249.5332336113421" y="383.0" type="line"/>
      <point x="255.0573318975553" y="420.0" type="line"/>
      <point x="251.80839506485947" y="515.0" type="line"/>
    </contour>
    <contour>
      <point x="181.14458971727922" y="222.0" type="line"/>
      <point x="151.5216569582571" y="54.0"/>
      <point x="230.23673019291536" y="-10.0"/>
      <point x="316.23673019291533" y="-10.0" type="curve"/>
      <point x="445.23673019291533" y="-10.0"/>
      <point x="547.2220822251787" y="92.0"/>
      <point x="577.1976689456178" y="262.0" type="curve" smooth="yes"/>
      <point x="606.115293781806" y="426.0"/>
      <point x="537.0661703664497" y="525.0"/>
      <point x="431.5716648719441" y="525.0" type="curve" smooth="yes"/>
      <point x="365.5716648719441" y="525.0"/>
      <point x="296.694912624314" y="486.0"/>
      <point x="242.82060170463996" y="430.0" type="curve"/>
      <point x="230.12505909363045" y="358.0" type="line"/>
      <point x="282.9414081290537" y="408.0"/>
      <point x="338.5838715117246" y="440.0"/>
      <point x="391.5838715117246" y="440.0" type="curve" smooth="yes"/>
      <point x="461.24758832588395" y="440.0"/>
      <point x="503.3410227758701" y="376.2386363636364"/>
      <point x="482.66868800349243" y="259.0" type="curve" smooth="yes"/>
      <point x="462.7338935144623" y="145.94416243654823"/>
      <point x="397.81390770746714" y="67.0"/>
      <point x="314.81390770746714" y="67.0" type="curve"/>
      <point x="254.81390770746717" y="67.0"/>
      <point x="202.6302567428904" y="117.0"/>
      <point x="222.90785952436386" y="232.0" type="curve"/>
    </contour>
  </outline>
</glyph>
<glyph name="s" format="1">
  <advance width="501"/>
  <unicode hex="0073"/>
  <outline>
    <contour>
      <point x="60.755945823216365" y="61.0" type="line"/>
      <point x="99.35021263346083" y="19.0"/>
      <point x="166.23673019291536" y="-10.0"/>
      <point x="243.23673019291536" y="-10.0" type="curve" smooth="yes"/>
      <point x="365.23673019291533" y="-10.0"/>
      <point x="455.5216569582571" y="54.0"/>
      <point x="470.6857772991851" y="140.0" type="curve" smooth="yes"/>
      <point x="483.20499292948614" y="211.0"/>
      <point x="455.07930384916017" y="267.0"/>
      <point x="330.9560560967903" y="306.0" type="curve" smooth="yes"/>
      <point x="240.8932115566273" y="334.0"/>
      <point x="218.06709720937965" y="352.0"/>
      <point x="224.76752247630134" y="390.0" type="curve" smooth="yes"/>
      <point x="230.40998585897222" y="422.0"/>
      <point x="266.9944873573923" y="448.0"/>
      <point x="327.9944873573923" y="448.0" type="curve" smooth="yes"/>
      <point x="377.9944873573923" y="448.0"/>
      <point x="419.2916207625145" y="427.0"/>
      <point x="446.70711926409444" y="401.0" type="curve"/>
      <point x="509.34469999085314" y="467.0" type="line"/>
      <point x="469.0451252577748" y="505.0"/>
      <point x="407.5716648719441" y="525.0"/>
      <point x="350.5716648719441" y="525.0" type="curve" smooth="yes"/>
      <point x="239.5716648719441" y="525.0"/>
      <point x="149.63939206801928" y="463.0"/>
      <point x="135.0042526692167" y="380.0" type="curve" smooth="yes"/>
      <point x="122.48503703891568" y="309.0"/>
      <point x="159.3160340420755" y="257.0"/>
      <point x="270.96826273657075" y="221.0" type="curve" smooth="yes"/>
      <point x="361.8547802960253" y="192.0"/>
      <point x="383.0939518168967" y="165.0"/>
      <point x="376.74618051139197" y="129.0" type="curve" smooth="yes"/>
      <point x="370.2220822251788" y="92.0"/>
      <point x="332.81390770746714" y="67.0"/>
      <point x="264.81390770746714" y="67.0" type="curve" smooth="yes"/>
      <point x="199.81390770746717" y="67.0"/>
      <point x="156.57473618659571" y="94.0"/>
      <point x="125.6882186271412" y="123.0" type="curve"/>
    </contour>
    <contour>
      <point x="245.0" y="0.0" type="move" name="bottom"/>
    </contour>
    <contour>
      <point x="348.8083950648595" y="515.0" type="move" name="top"/>
    </contour>
  </outline>
</glyph>
<glyph name="z" format="1">
  <advance width="504"/>
  <unicode hex="007A"/>
  <outline>
    <contour>
      <point x="60.5796188425079" y="60.0" type="line"/>
      <point x="119.0" y="0.0" type="line"/>
      <point x="524.2287762223516" y="455.0" type="line"/>
      <point x="465.8083950648595" y="515.0" type="line"/>
    </contour>
    <contour>
      <point x="50.0" y="0.0" type="line"/>
      <point x="454.0" y="0.0" type="line"/>
      <point x="468.1061584566772" y="80.0" type="line"/>
      <point x="110.10615845667719" y="80.0" type="line"/>
      <point x="60.5796188425079" y="60.0" type="line"/>
    </contour>
    <contour>
      <point x="136.70223660818226" y="435.0" type="line"/>
      <point x="471.70223660818226" y="435.0" type="line"/>
      <point x="524.2287762223516" y="455.0" type="line"/>
      <point x="534.8083950648595" y="515.0" type="line"/>
      <point x="150.80839506485947" y="515.0" type="line"/>
    </contour>
    <contour>
      <point x="342.8083950648595" y="515.0" type="move" name="top"/>
    </contour>
  </outline>
</glyph>
<glyph name="bar" format="1">
  <advance width="282"/>
  <unicode hex="007C"/>
  <outline>
    <contour>
      <point x="62.08969914768003" y="-215.0" type="line"/>
      <point x="144.08969914768002" y="-215.0" type="line"/>
      <point x="308.9554261100948" y="720.0" type="line"/>
      <point x="226.95542611009478" y="720.0" type="line"/>
    </contour>
  </outline>
</glyph>
<glyph name="braceright" format="1">
  <advance width="348"/>
  <unicode hex="007D"/>
  <outline>
    <contour>
      <point x="-4.383761238150669" y="-195.0" type="curve"/>
      <point x="-3.4343991385331734" y="-252.0" type="line"/>
      <point x="130.26846745634458" y="-231.0"/>
      <point x="205.7297212023948" y="-166.0"/>
      <point x="220.71751456261433" y="-81.0" type="curve" smooth="yes"/>
      <point x="237.29225074921004" y="13.0"/>
      <point x="162.75594582321636" y="61.0"/>
      <point x="175.98046937635124" y="136.0" type="curve" smooth="yes"/>
      <point x="183.03354860468983" y="176.0"/>
      <point x="225.85233896806918" y="209.0"/>
      <point x="319.4368404664893" y="235.0" type="curve"/>
      <point x="330.72176723183105" y="299.0" type="line"/>
      <point x="246.30626873025113" y="325.0"/>
      <point x="215.12505909363045" y="358.0"/>
      <point x="222.17813832196907" y="398.0" type="curve" smooth="yes"/>
      <point x="235.40266187510395" y="473.0"/>
      <point x="327.04268392981874" y="522.0"/>
      <point x="343.61742011641445" y="616.0" type="curve" smooth="yes"/>
      <point x="358.60521347663393" y="701.0"/>
      <point x="305.0664672226842" y="766.0"/>
      <point x="179.76933381756194" y="787.0" type="curve"/>
      <point x="158.71869591717945" y="730.0" type="line"/>
      <point x="253.60521347663393" y="701.0"/>
      <point x="269.7284612290038" y="662.0"/>
      <point x="261.7937470971229" y="617.0" type="curve" smooth="yes"/>
      <point x="248.74555052469648" y="543.0"/>
      <point x="160.694912624314" y="486.0"/>
      <point x="146.23610020621985" y="404.0" type="curve" smooth="yes"/>
      <point x="134.9511734408781" y="340.0"/>
      <point x="164.66380534758025" y="293.0"/>
      <point x="249.07930384916014" y="267.0" type="curve"/>
      <point x="155.49480235074006" y="241.0"/>
      <point x="109.2074342574422" y="194.0"/>
      <point x="97.92250749210045" y="130.0" type="curve" smooth="yes"/>
      <point x="83.46369507400632" y="48.0"/>
      <point x="151.5893841543323" y="-8.0"/>
      <point x="138.54118758190586" y="-82.0" type="curve" smooth="yes"/>
      <point x="130.60647345002494" y="-127.0"/>
      <point x="100.72972120239481" y="-166.0"/>
    </contour>
  </outline>
</glyph>
